# xmcd CD database file
#
# Track frame offsets:
#	150
#	21687
#	47557
#	73307
#	89660
#	110032
#	138135
#	157980
#	183040
#	194102
#	213175
#	237267
#	255042
#
# Disc length: 3612 seconds
#
# Revision: 0
# Processed by: cddbd v1.5PL3 Copyright (c) Steve Scherf et al.
# Submitted via: CDex 1.40Release
#
DISCID=b70e1a0d
DTITLE=Various Aritists - Eternal Best Jazz Bossa
DYEAR=1998
DGENRE=Jazz
TTITLE0=夜は千の目を持つ／ポール・デスモンド
TTITLE1=ジャズ・サンバ／ラリー・ゴールディングス
TTITLE2=ノー・モア・ブルース／ハリー・アレン
TTITLE3=イパネマの娘／渡辺貞夫
TTITLE4=おいしい水／フォルマ・ジ・アグア
TTITLE5=ス・ワンダフル／ジョン・ピザレリ
TTITLE6=オルフェのサンバ／ポール・デスモンド
TTITLE7=ブルー・ボッサ／エルナン・ロペス＝ヌッサ
TTITLE8=ワン・ノート・サンバ／鈴木重子
TTITLE9=黒いオルフェ／ポール・デスモンド
TTITLE10=メニーナ・モサ／ラリー・ゴールディングス
TTITLE11=コルコヴァード／ハリー・アレン
TTITLE12=ワンス・アイ・ラヴド／渡辺貞夫
EXTD=YEAR: 1998 ID3G: 8
EXTT0=
EXTT1=
EXTT2=
EXTT3=
EXTT4=
EXTT5=
EXTT6=
EXTT7=
EXTT8=
EXTT9=
EXTT10=
EXTT11=
EXTT12=
PLAYORDER=
